<?xml version="1.0" encoding="utf-8"?>
<!-- Generator: Adobe Illustrator 16.0.0, SVG Export Plug-In . SVG Version: 6.00 Build 0)  -->
<!DOCTYPE svg PUBLIC "-//W3C//DTD SVG 1.1//EN" "http://www.w3.org/Graphics/SVG/1.1/DTD/svg11.dtd">
<svg version="1.1" id="Layer_1" xmlns="http://www.w3.org/2000/svg" xmlns:xlink="http://www.w3.org/1999/xlink" x="0px" y="0px"
	 width="545.705px" height="472.867px" viewBox="24.422 181.788 545.705 472.867"
	 enable-background="new 24.422 181.788 545.705 472.867" xml:space="preserve">
<g id="Background">
</g>
<g id="Text" display="none">
	<g display="inline">
		<path fill="#414141" d="M157.984,654.62v-403h152.521c21.486,0,42.053,2.073,61.688,6.2c19.627,4.136,36.783,11.16,51.459,21.08
			c14.668,9.92,26.353,23.25,35.031,39.99c8.68,16.74,13.02,37.723,13.02,62.93c0,28.938-5.891,52.913-17.67,71.92
			c-11.778,19.018-27.59,33.896-47.43,44.641l87.42,156.239H374.983l-69.438-135.159h-40.92V654.62H157.984z M264.624,435.141
			h38.438c42.984,0,64.48-17.769,64.48-53.32c0-17.359-5.482-29.344-16.431-35.96c-10.957-6.606-26.971-9.92-48.051-9.92h-38.438
			L264.624,435.141L264.624,435.141z"/>
	</g>
</g>
<g id="Figure">
	<g>
		<g display="none">
			<path display="inline" fill="#ED1C24" d="M169.563,660.102c-5.5,0-12.25-3.897-15-8.66L26.485,429.605
				c-2.75-4.764-2.75-12.558,0-17.321l128.078-221.837c2.75-4.763,9.5-8.66,15-8.66h256.155c5.5,0,12.25,3.897,15,8.66
				l128.077,221.836c2.75,4.764,2.75,12.558,0,17.321L440.718,651.441c-2.75,4.763-9.5,8.66-15,8.66L169.563,660.102
				L169.563,660.102z"/>
		</g>
		<g>
			
				<linearGradient id="SVGID_1_" gradientUnits="userSpaceOnUse" x1="67.0471" y1="178.595" x2="67.0471" y2="646.0159" gradientTransform="matrix(1 0 0 -1 24.9448 833.2495)">
				<stop  offset="0" style="stop-color:#1EB2A0"/>
				<stop  offset="1" style="stop-color:#008C8C"/>
			</linearGradient>
			<path fill="url(#SVGID_1_)" d="M159.563,650.102c0,5.5-2.25,6.103-5,1.34L26.485,429.605c-2.75-4.764-2.75-12.558,0-17.321
				l128.078-221.837c2.75-4.763,5-4.16,5,1.34V650.102z"/>
		</g>
		<g display="none">
			
				<linearGradient id="SVGID_2_" gradientUnits="userSpaceOnUse" x1="101.2346" y1="358.1492" x2="303.7932" y2="708.991" gradientTransform="matrix(1 0 0 -1 24.9448 833.2495)">
				<stop  offset="0" style="stop-color:#008C8C"/>
				<stop  offset="1" style="stop-color:#087187"/>
			</linearGradient>
			<path display="inline" fill="url(#SVGID_2_)" d="M30.146,415.946c-4.763,2.75-6.41,1.104-3.66-3.66l128.077-221.838
				c2.75-4.763,9.5-8.66,15-8.66l256.156,0.001c5.5,0,6.103,2.25,1.34,5L30.146,415.946z"/>
		</g>
		<g display="none">
			
				<linearGradient id="SVGID_3_" gradientUnits="userSpaceOnUse" x1="140.0652" y1="533.7166" x2="545.1829" y2="533.7166" gradientTransform="matrix(1 0 0 -1 24.9448 833.2495)">
				<stop  offset="0" style="stop-color:#008C8C"/>
				<stop  offset="0.8" style="stop-color:#087187"/>
				<stop  offset="1" style="stop-color:#1EB2A0"/>
			</linearGradient>
			<path display="inline" fill="url(#SVGID_3_)" d="M168.223,186.789c-4.763-2.75-4.16-5,1.34-5l256.156-0.001
				c5.5,0,12.25,3.897,15,8.66l128.076,221.838c2.75,4.764,1.103,6.41-3.66,3.66L168.223,186.789z"/>
		</g>
	</g>
</g>
</svg>
