<?xml version="1.0" encoding="utf-8"?>
<!-- Generator: Adobe Illustrator 16.0.0, SVG Export Plug-In . SVG Version: 6.00 Build 0)  -->
<!DOCTYPE svg PUBLIC "-//W3C//DTD SVG 1.1//EN" "http://www.w3.org/Graphics/SVG/1.1/DTD/svg11.dtd">
<svg version="1.1" id="Layer_1" xmlns="http://www.w3.org/2000/svg" xmlns:xlink="http://www.w3.org/1999/xlink" x="0px" y="0px"
	 width="1886.777px" height="477.938px" viewBox="24.422 181.788 1886.777 477.938"
	 enable-background="new 24.422 181.788 1886.777 477.938" xml:space="preserve">
<g id="Background" display="none">
	<rect x="0" y="0" display="inline" fill="#414042" width="1995" height="841.891"/>
</g>
<g id="Text">
	<g>
		<g>
			<path fill="#404041" d="M157.984,654.62v-403h152.521c21.486,0,42.053,2.073,61.688,6.2c19.627,4.136,36.783,11.16,51.459,21.08
				c14.668,9.92,26.353,23.25,35.031,39.99c8.68,16.74,13.02,37.723,13.02,62.93c0,28.938-5.891,52.913-17.67,71.92
				c-11.778,19.018-27.59,33.896-47.43,44.641l87.42,156.239H374.983l-69.438-135.159h-40.92V654.62H157.984z M264.624,435.141
				h38.438c42.984,0,64.48-17.769,64.48-53.32c0-17.359-5.482-29.344-16.431-35.96c-10.957-6.606-26.971-9.92-48.051-9.92h-38.438
				L264.624,435.141L264.624,435.141z"/>
		</g>
		<g>
			<path fill="#404041" d="M600.561,659.726c-15.402,0-29.682-2.454-42.84-7.35c-13.164-4.896-24.57-12.036-34.23-21.422
				c-9.66-9.377-17.291-20.928-22.89-34.648c-5.604-13.716-8.399-29.256-8.399-46.62c0-17.075,2.867-32.405,8.609-45.99
				c5.736-13.577,13.296-25.128,22.68-34.648c9.379-9.517,20.088-16.802,32.131-21.841c12.035-5.039,24.498-7.561,37.381-7.561
				c15.396,0,28.835,2.664,40.318,7.98c11.479,5.32,21,12.6,28.562,21.84c7.561,9.238,13.229,20.021,17.01,32.34
				c3.78,12.324,5.67,25.482,5.67,39.479c0,6.444-0.354,12.463-1.05,18.062c-0.702,5.604-1.332,9.66-1.891,12.18H561.922
				c3.359,12.602,9.378,21.354,18.06,26.25c8.676,4.902,18.9,7.352,30.66,7.352c7.276,0,14.346-1.052,21.21-3.15
				c6.857-2.1,14.07-5.25,21.63-9.45l23.521,42.84c-11.483,8.125-24.149,14.215-38.011,18.271
				C625.131,657.691,612.32,659.726,600.561,659.726z M561.079,524.485h62.16c0-8.117-2.033-15.186-6.09-21.21
				c-4.063-6.018-11.55-9.03-22.47-9.03c-8.124,0-15.192,2.384-21.21,7.142C567.446,506.15,563.318,513.848,561.079,524.485z"/>
			<path fill="#404041" d="M774.438,659.726c-9.805,0-18.625-1.752-26.461-5.25c-7.842-3.498-14.49-8.19-19.949-14.07
				c-5.461-5.88-9.595-12.736-12.391-20.58c-2.802-7.835-4.199-16.098-4.199-24.778c0-21.842,8.957-38.988,26.879-51.45
				c17.916-12.456,47.041-20.79,87.361-24.99c-1.682-14.556-11.484-21.84-29.4-21.84c-7.561,0-15.541,1.47-23.939,4.41
				c-8.399,2.938-18.061,7.35-28.979,13.229l-25.2-47.04c14.837-8.957,29.819-15.814,44.94-20.58
				c15.119-4.758,30.936-7.14,47.459-7.14c27.156,0,48.51,7.771,64.051,23.31c15.539,15.54,23.311,40.53,23.311,74.972v116.76
				h-58.801l-5.04-20.16h-1.681c-8.398,7.562-17.291,13.65-26.67,18.271C796.343,657.416,785.914,659.726,774.438,659.726z
				 M799.637,604.285c5.881,0,10.711-1.324,14.49-3.988c3.779-2.658,7.625-6.092,11.551-10.29v-28.562
				c-17.365,2.521-29.264,6.3-35.701,11.34c-6.443,5.04-9.66,10.5-9.66,16.381C780.316,599.245,786.755,604.285,799.637,604.285z"/>
			<path fill="#404041" d="M1009.635,659.726c-12.324,0-22.613-1.89-30.869-5.67c-8.263-3.78-14.91-9.168-19.95-16.17
				c-5.04-6.996-8.61-15.33-10.71-24.99s-3.15-20.37-3.15-32.13v-218.4h72.24v220.92c0,7.285,1.326,12.182,3.99,14.7
				c2.658,2.521,5.25,3.78,7.77,3.78c1.398,0,2.586,0,3.57,0c0.979,0,2.311-0.275,3.99-0.84l8.398,52.92
				c-3.925,1.68-8.755,3.078-14.488,4.2C1024.684,659.161,1017.752,659.726,1009.635,659.726z"/>
			<path fill="#404041" d="M1106.23,418.646c-11.76,0-21.42-3.36-28.979-10.08s-11.341-15.396-11.341-26.04
				c0-10.638,3.781-19.32,11.341-26.04c7.561-6.72,17.221-10.08,28.979-10.08s21.42,3.36,28.979,10.08s11.341,15.402,11.341,26.04
				c0,10.646-3.781,19.32-11.341,26.04C1127.65,415.285,1117.99,418.646,1106.23,418.646z M1070.111,654.686v-210h72.238v210
				H1070.111z"/>
			<path fill="#404041" d="M1255.748,659.726c-13.439,0-27.653-2.664-42.63-7.98c-14.981-5.314-27.93-12.455-38.851-21.42
				l31.921-44.52c19.037,14.004,36.119,21,51.239,21c7.561,0,12.948-1.05,16.17-3.15c3.216-2.1,4.83-5.25,4.83-9.45
				c0-2.795-1.122-5.25-3.359-7.35c-2.245-2.1-5.25-4.056-9.029-5.88c-3.78-1.817-8.054-3.57-12.812-5.25
				c-4.764-1.68-9.804-3.636-15.119-5.88c-6.162-2.521-12.391-5.525-18.689-9.03c-6.301-3.498-11.971-7.77-17.011-12.81
				s-9.175-10.849-12.391-17.432c-3.222-6.575-4.829-14.207-4.829-22.89c0-10.355,2.027-19.74,6.09-28.141
				c4.057-8.399,9.727-15.539,17.011-21.42c7.276-5.881,16.024-10.429,26.25-13.649c10.218-3.216,21.484-4.83,33.81-4.83
				c17.358,0,32.269,2.874,44.729,8.61c12.455,5.741,23.311,12.113,32.551,19.108l-31.92,42.84
				c-7.561-5.598-14.982-9.936-22.261-13.02c-7.284-3.078-14.143-4.62-20.579-4.62c-12.324,0-18.48,3.925-18.48,11.76
				c0,2.803,1.051,5.186,3.15,7.142c2.1,1.962,4.968,3.778,8.609,5.46c3.635,1.68,7.835,3.294,12.601,4.83
				c4.758,1.542,9.798,3.294,15.12,5.25c6.154,2.243,12.454,5.039,18.898,8.398c6.438,3.36,12.246,7.495,17.432,12.391
				c5.178,4.901,9.378,10.782,12.6,17.641c3.216,6.864,4.83,15.055,4.83,24.57c0,9.804-1.962,18.972-5.88,27.51
				c-3.926,8.544-9.66,15.96-17.221,22.26s-16.943,11.202-28.141,14.7C1283.187,657.974,1270.305,659.726,1255.748,659.726z"/>
			<path fill="#404041" d="M1478.347,659.726c-15.402,0-29.683-2.454-42.84-7.35c-13.164-4.896-24.57-12.036-34.229-21.422
				c-9.66-9.377-17.293-20.928-22.891-34.648c-5.604-13.716-8.399-29.256-8.399-46.62c0-17.075,2.867-32.405,8.609-45.99
				c5.735-13.577,13.296-25.128,22.681-34.648c9.377-9.517,20.087-16.802,32.13-21.841c12.035-5.039,24.497-7.561,37.38-7.561
				c15.396,0,28.836,2.664,40.319,7.98c11.479,5.32,21,12.6,28.562,21.84c7.56,9.238,13.229,20.021,17.01,32.34
				c3.78,12.324,5.67,25.482,5.67,39.479c0,6.444-0.354,12.463-1.05,18.062c-0.702,5.604-1.332,9.66-1.891,12.18h-119.699
				c3.358,12.602,9.378,21.354,18.06,26.25c8.676,4.902,18.9,7.352,30.66,7.352c7.278,0,14.346-1.052,21.21-3.15
				c6.858-2.1,14.07-5.25,21.63-9.45l23.521,42.84c-11.484,8.125-24.15,14.215-38.011,18.271
				C1502.916,657.691,1490.106,659.726,1478.347,659.726z M1438.866,524.485h62.16c0-8.117-2.035-15.186-6.091-21.21
				c-4.063-6.018-11.55-9.03-22.47-9.03c-8.124,0-15.192,2.384-21.21,7.142C1445.232,506.15,1441.104,513.848,1438.866,524.485z"/>
			<path fill="#404041" d="M1678.261,659.726c-13.164,0-24.99-2.521-35.49-7.561s-19.464-12.317-26.88-21.841
				c-7.422-9.516-13.164-21.064-17.22-34.648c-4.063-13.578-6.091-28.908-6.091-45.99c0-17.075,2.447-32.478,7.351-46.2
				c4.896-13.716,11.34-25.266,19.319-34.648c7.979-9.378,17.147-16.592,27.511-21.632c10.354-5.038,20.854-7.56,31.5-7.56
				c11.478,0,20.854,1.89,28.141,5.67c7.277,3.78,14.135,8.894,20.579,15.33l-2.52-30.24v-68.04h72.239v292.32h-58.8l-5.04-19.32
				h-1.681c-7.284,7.285-15.612,13.165-24.989,17.642C1696.807,657.481,1687.5,659.726,1678.261,659.726z M1697.58,600.927
				c5.599,0,10.5-1.05,14.7-3.15c4.199-2.1,8.255-6.09,12.181-11.97v-77.28c-4.2-3.918-8.82-6.575-13.86-7.979
				c-5.04-1.398-9.941-2.102-14.699-2.102c-7.561,0-14.353,3.78-20.37,11.34c-6.023,7.562-9.029,20.58-9.029,39.062
				c0,19.044,2.729,32.483,8.189,40.32C1680.151,597.009,1687.776,600.927,1697.58,600.927z"/>
		</g>
		<g>
			<g>
				<path d="M1869.199,660.359c-12.324,0-22.404-4.199-30.24-12.6c-7.842-8.4-11.76-18.756-11.76-31.08
					c0-12.318,3.918-22.68,11.76-31.08c7.837-8.4,17.916-12.6,30.24-12.6c12.317,0,22.397,4.198,30.24,12.6
					c7.835,8.4,11.76,18.762,11.76,31.08c0,12.324-3.925,22.68-11.76,31.08C1891.598,656.16,1881.518,660.359,1869.199,660.359z"/>
			</g>
			<g>
				<path fill="#008C8C" d="M1869.199,660.359c-12.324,0-22.404-4.199-30.24-12.6c-7.842-8.4-11.76-18.756-11.76-31.08
					c0-12.318,3.918-22.68,11.76-31.08c7.837-8.4,17.916-12.6,30.24-12.6c12.317,0,22.397,4.198,30.24,12.6
					c7.835,8.4,11.76,18.762,11.76,31.08c0,12.324-3.925,22.68-11.76,31.08C1891.598,656.16,1881.518,660.359,1869.199,660.359z"/>
			</g>
		</g>
	</g>
</g>
<g id="Figure">
	<g>
		<g display="none">
			<path display="inline" fill="#ED1C24" d="M169.563,660.102c-5.5,0-12.25-3.897-15-8.66L26.485,429.605
				c-2.75-4.764-2.75-12.558,0-17.321l128.078-221.837c2.75-4.763,9.5-8.66,15-8.66h256.155c5.5,0,12.25,3.897,15,8.66
				l128.077,221.836c2.75,4.764,2.75,12.558,0,17.321L440.718,651.441c-2.75,4.763-9.5,8.66-15,8.66L169.563,660.102
				L169.563,660.102z"/>
		</g>
		<g>
			
				<linearGradient id="SVGID_1_" gradientUnits="userSpaceOnUse" x1="67.0471" y1="178.595" x2="67.0471" y2="646.0159" gradientTransform="matrix(1 0 0 -1 24.9448 833.2495)">
				<stop  offset="0" style="stop-color:#1EB2A0"/>
				<stop  offset="1" style="stop-color:#008C8C"/>
			</linearGradient>
			<path fill="url(#SVGID_1_)" d="M159.563,650.102c0,5.5-2.25,6.103-5,1.34L26.485,429.605c-2.75-4.764-2.75-12.558,0-17.321
				l128.078-221.837c2.75-4.763,5-4.16,5,1.34V650.102z"/>
		</g>
		<g>
			
				<linearGradient id="SVGID_2_" gradientUnits="userSpaceOnUse" x1="101.2341" y1="358.1501" x2="303.7927" y2="708.9919" gradientTransform="matrix(1 0 0 -1 24.9448 833.2495)">
				<stop  offset="0" style="stop-color:#008C8C"/>
				<stop  offset="1" style="stop-color:#087187"/>
			</linearGradient>
			<path fill="url(#SVGID_2_)" d="M30.146,415.946c-4.763,2.75-6.41,1.104-3.66-3.66l128.077-221.838c2.75-4.763,9.5-8.66,15-8.66
				l256.156,0.001c5.5,0,6.103,2.25,1.34,5L30.146,415.946z"/>
		</g>
		<g>
			
				<linearGradient id="SVGID_3_" gradientUnits="userSpaceOnUse" x1="140.0652" y1="533.7166" x2="545.1824" y2="533.7166" gradientTransform="matrix(1 0 0 -1 24.9448 833.2495)">
				<stop  offset="0" style="stop-color:#008C8C"/>
				<stop  offset="0.8" style="stop-color:#087187"/>
				<stop  offset="1" style="stop-color:#1EB2A0"/>
			</linearGradient>
			<path fill="url(#SVGID_3_)" d="M168.223,186.789c-4.763-2.75-4.16-5,1.34-5l256.156-0.001c5.5,0,12.25,3.897,15,8.66
				l128.076,221.838c2.75,4.764,1.103,6.41-3.66,3.66L168.223,186.789z"/>
		</g>
	</g>
</g>
</svg>
