<?xml version="1.0" encoding="utf-8"?>
<!-- Generator: Adobe Illustrator 16.0.0, SVG Export Plug-In . SVG Version: 6.00 Build 0)  -->
<!DOCTYPE svg PUBLIC "-//W3C//DTD SVG 1.1//EN" "http://www.w3.org/Graphics/SVG/1.1/DTD/svg11.dtd">
<svg version="1.1" xmlns="http://www.w3.org/2000/svg" xmlns:xlink="http://www.w3.org/1999/xlink" x="0px" y="0px"
	 width="595.28px" height="841.89px" viewBox="0 0 595.28 841.89" enable-background="new 0 0 595.28 841.89" xml:space="preserve">
<g id="Background">
</g>
<g id="Text">
	<g>
		<path fill="#414141" d="M157.984,654.62v-403h152.521c21.486,0,42.053,2.073,61.689,6.2c19.627,4.136,36.783,11.16,51.459,21.08
			c14.668,9.92,26.352,23.25,35.031,39.99c8.68,16.74,13.02,37.723,13.02,62.93c0,28.937-5.891,52.913-17.67,71.92
			c-11.779,19.017-27.59,33.896-47.43,44.64l87.42,156.24H374.983l-69.439-135.16h-40.92v135.16H157.984z M264.624,435.141h38.439
			c42.984,0,64.48-17.768,64.48-53.32c0-17.36-5.482-29.344-16.43-35.96c-10.957-6.607-26.971-9.92-48.051-9.92h-38.439V435.141z"/>
	</g>
</g>
<g id="Figure">
	<g>
		<g display="none">
			<path display="inline" fill="#ED1C24" d="M169.563,660.102c-5.5,0-12.25-3.897-15-8.66L26.485,429.605
				c-2.75-4.764-2.75-12.558,0-17.321l128.078-221.837c2.75-4.763,9.5-8.66,15-8.66l256.155,0c5.5,0,12.25,3.897,15,8.66
				l128.077,221.836c2.75,4.763,2.75,12.557,0,17.321L440.718,651.441c-2.75,4.763-9.5,8.66-15,8.66H169.563z"/>
		</g>
		<g>
			<linearGradient id="SVGID_1_" gradientUnits="userSpaceOnUse" x1="91.9927" y1="654.6543" x2="91.9927" y2="187.2349">
				<stop  offset="0" style="stop-color:#1EB2A0"/>
				<stop  offset="1" style="stop-color:#008C8C"/>
			</linearGradient>
			<path fill="url(#SVGID_1_)" d="M159.563,650.102c0,5.5-2.25,6.103-5,1.34L26.485,429.605c-2.75-4.764-2.75-12.558,0-17.321
				l128.078-221.837c2.75-4.763,5-4.16,5,1.34V650.102z"/>
		</g>
		<g>
			<linearGradient id="SVGID_2_" gradientUnits="userSpaceOnUse" x1="126.1782" y1="475.1016" x2="328.7371" y2="124.2593">
				<stop  offset="0" style="stop-color:#008C8C"/>
				<stop  offset="1" style="stop-color:#087187"/>
			</linearGradient>
			<path fill="url(#SVGID_2_)" d="M30.146,415.946c-4.763,2.75-6.41,1.103-3.66-3.66l128.077-221.838c2.75-4.763,9.5-8.66,15-8.66
				l256.156,0.001c5.5,0,6.103,2.25,1.34,5L30.146,415.946z"/>
		</g>
		<g>
			<linearGradient id="SVGID_3_" gradientUnits="userSpaceOnUse" x1="165.0098" y1="299.5327" x2="570.127" y2="299.5327">
				<stop  offset="0" style="stop-color:#008C8C"/>
				<stop  offset="0.8" style="stop-color:#087187"/>
				<stop  offset="1" style="stop-color:#1EB2A0"/>
			</linearGradient>
			<path fill="url(#SVGID_3_)" d="M168.223,186.789c-4.763-2.75-4.16-5,1.34-5l256.156-0.001c5.5,0,12.25,3.897,15,8.66
				l128.076,221.838c2.75,4.763,1.103,6.41-3.66,3.66L168.223,186.789z"/>
		</g>
	</g>
</g>
</svg>
